<svg xmlns="http://www.w3.org/2000/svg" viewBox="0 0 1200 420" fill="none">
  <defs>
    <radialGradient id="hero-glow" cx="0" cy="0" r="1" gradientUnits="userSpaceOnUse" gradientTransform="translate(450 202) rotate(180) scale(424 188)">
      <stop stop-color="#FFD54A" stop-opacity="0.34" />
      <stop offset="0.68" stop-color="#FFC700" stop-opacity="0.08" />
      <stop offset="1" stop-color="#FFC700" stop-opacity="0" />
    </radialGradient>
    <linearGradient id="wordmark-gold" x1="82" y1="44" x2="438" y2="380" gradientUnits="userSpaceOnUse">
      <stop stop-color="#FFE165" />
      <stop offset="0.48" stop-color="#FFC700" />
      <stop offset="1" stop-color="#F0AE00" />
    </linearGradient>
  </defs>
  <rect width="1200" height="420" rx="96" fill="#050505" />
  <ellipse cx="606" cy="214" rx="424" ry="150" fill="url(#hero-glow)" />
  <g transform="translate(66 44)">
    <g transform="scale(0.82)">
      <path d="M122 20h114c26 0 48 22 48 48v215H92V50c0-17 13-30 30-30Z" fill="url(#wordmark-gold)" />
      <rect x="118" y="46" width="118" height="82" rx="16" fill="#0B0B0B" />
      <rect x="136" y="64" width="82" height="46" rx="10" fill="#FFC700" opacity="0.95" />
      <rect x="176" y="146" width="50" height="16" rx="8" fill="#161616" opacity="0.36" />
      <path d="M287 98 332 136 311 162 270 129l-23 18-18-22 58-48Z" fill="#F9C200" />
      <path d="M246 146c19 0 34 15 34 34v101c0 25 20 45 45 45h7c10 0 18-8 18-18v-15c0-10-8-18-18-18h-5c-18 0-33-15-33-33V198c0-40-22-72-48-88Z" fill="none" stroke="#F9C200" stroke-linecap="round" stroke-linejoin="round" stroke-width="24" />
      <rect x="66" y="284" width="226" height="24" rx="12" fill="#F9C200" />
      <rect x="96" y="330" width="204" height="18" rx="9" fill="#F9C200" />
      <path d="m14 316 116-68-29 55-87 57Z" fill="#F9C200" />
      <path d="m72 300 96-56-26 48-71 47Z" fill="#F9C200" opacity="0.92" />
      <path d="m128 284 72-42-20 39-52 33Z" fill="#F9C200" opacity="0.82" />
    </g>
  </g>
  <g transform="translate(390 116)">
    <text x="0" y="92" fill="#FFC700" font-family="Impact, Haettenschweiler, 'Arial Narrow Bold', sans-serif" font-size="112" font-weight="700" letter-spacing="1">BOMBA ABERTA</text>
    <text x="2" y="148" fill="#FFD54A" font-family="Arial, Helvetica, sans-serif" font-size="26" font-weight="700" letter-spacing="6">por VR Abandonada</text>
  </g>
</svg>
