<svg xmlns="http://www.w3.org/2000/svg" viewBox="0 0 512 512" fill="none">
  <defs>
    <radialGradient id="icon-glow" cx="0" cy="0" r="1" gradientUnits="userSpaceOnUse" gradientTransform="translate(248 228) rotate(90) scale(176)">
      <stop stop-color="#FFD54A" stop-opacity="0.46" />
      <stop offset="0.62" stop-color="#FFC700" stop-opacity="0.12" />
      <stop offset="1" stop-color="#FFC700" stop-opacity="0" />
    </radialGradient>
    <linearGradient id="icon-gold" x1="46" y1="18" x2="336" y2="366" gradientUnits="userSpaceOnUse">
      <stop stop-color="#FFE165" />
      <stop offset="0.48" stop-color="#FFC700" />
      <stop offset="1" stop-color="#F0AE00" />
    </linearGradient>
    <filter id="icon-shadow" x="18" y="18" width="402" height="420" filterUnits="userSpaceOnUse" color-interpolation-filters="sRGB">
      <feDropShadow dx="0" dy="18" stdDeviation="22" flood-color="#000000" flood-opacity="0.55" />
    </filter>
  </defs>
  <rect width="512" height="512" rx="128" fill="#050505" />
  <circle cx="250" cy="234" r="176" fill="url(#icon-glow)" />
  <g filter="url(#icon-shadow)" transform="translate(76 56)">
    <path d="M122 20h114c26 0 48 22 48 48v215H92V50c0-17 13-30 30-30Z" fill="url(#icon-gold)" />
    <rect x="118" y="46" width="118" height="82" rx="16" fill="#0B0B0B" />
    <rect x="136" y="64" width="82" height="46" rx="10" fill="#FFC700" opacity="0.95" />
    <rect x="176" y="146" width="50" height="16" rx="8" fill="#161616" opacity="0.36" />
    <path d="M287 98 332 136 311 162 270 129l-23 18-18-22 58-48Z" fill="#F9C200" />
    <path d="M246 146c19 0 34 15 34 34v101c0 25 20 45 45 45h7c10 0 18-8 18-18v-15c0-10-8-18-18-18h-5c-18 0-33-15-33-33V198c0-40-22-72-48-88Z" fill="none" stroke="#F9C200" stroke-linecap="round" stroke-linejoin="round" stroke-width="24" />
    <rect x="66" y="284" width="226" height="24" rx="12" fill="#F9C200" />
    <rect x="96" y="330" width="204" height="18" rx="9" fill="#F9C200" />
    <path d="m14 316 116-68-29 55-87 57Z" fill="#F9C200" />
    <path d="m72 300 96-56-26 48-71 47Z" fill="#F9C200" opacity="0.92" />
    <path d="m128 284 72-42-20 39-52 33Z" fill="#F9C200" opacity="0.82" />
  </g>
</svg>
