<svg xmlns="http://www.w3.org/2000/svg" viewBox="0 0 840 980" fill="none">
  <defs>
    <linearGradient id="badge-gold" x1="130" y1="108" x2="706" y2="812" gradientUnits="userSpaceOnUse">
      <stop stop-color="#FFE165" />
      <stop offset="0.46" stop-color="#FFC700" />
      <stop offset="1" stop-color="#E8A600" />
    </linearGradient>
    <radialGradient id="badge-glow" cx="0" cy="0" r="1" gradientUnits="userSpaceOnUse" gradientTransform="translate(420 338) rotate(90) scale(292)">
      <stop stop-color="#FFD54A" stop-opacity="0.28" />
      <stop offset="1" stop-color="#FFC700" stop-opacity="0" />
    </radialGradient>
  </defs>
  <rect width="840" height="980" rx="92" fill="#050505" />
  <circle cx="420" cy="358" r="292" fill="url(#badge-glow)" />
  <circle cx="420" cy="356" r="278" stroke="url(#badge-gold)" stroke-width="18" />
  <circle cx="420" cy="356" r="242" fill="#090909" stroke="#2A2410" stroke-width="2" />
  <path d="M208 648h424" stroke="#2A2410" stroke-width="2" />
  <g transform="translate(258 138)">
    <path d="M122 20h114c26 0 48 22 48 48v215H92V50c0-17 13-30 30-30Z" fill="url(#badge-gold)" />
    <rect x="118" y="46" width="118" height="82" rx="16" fill="#0B0B0B" />
    <rect x="136" y="64" width="82" height="46" rx="10" fill="#FFC700" opacity="0.95" />
    <g fill="#0B0B0B" opacity="0.88">
      <rect x="156" y="146" width="18" height="18" rx="4" />
      <rect x="180" y="146" width="18" height="18" rx="4" />
      <rect x="204" y="146" width="18" height="18" rx="4" />
      <rect x="156" y="170" width="18" height="18" rx="4" />
      <rect x="180" y="170" width="18" height="18" rx="4" />
      <rect x="204" y="170" width="18" height="18" rx="4" />
    </g>
    <path d="M287 98 332 136 311 162 270 129l-23 18-18-22 58-48Z" fill="#F9C200" />
    <path d="M246 146c19 0 34 15 34 34v101c0 25 20 45 45 45h7c10 0 18-8 18-18v-15c0-10-8-18-18-18h-5c-18 0-33-15-33-33V198c0-40-22-72-48-88Z" fill="none" stroke="#F9C200" stroke-linecap="round" stroke-linejoin="round" stroke-width="24" />
    <rect x="66" y="284" width="226" height="24" rx="12" fill="#F9C200" />
    <path d="m14 316 116-68-29 55-87 57Z" fill="#F9C200" />
    <path d="m72 300 96-56-26 48-71 47Z" fill="#F9C200" opacity="0.92" />
    <path d="m128 284 72-42-20 39-52 33Z" fill="#F9C200" opacity="0.82" />
  </g>
  <g fill="#FFC700">
    <path d="m168 214 68 34-40 74-74-18 46-90Z" opacity="0.96" />
    <path d="m672 214-68 34 40 74 74-18-46-90Z" opacity="0.96" />
  </g>
  <g fill="#FFC700" opacity="0.94">
    <path d="M190 432c30-60 66-82 92-82 28 0 44 30 44 74v70h-44v-54c0-18-4-28-14-28-12 0-28 18-48 58Z" />
    <path d="M650 432c-30-60-66-82-92-82-28 0-44 30-44 74v70h44v-54c0-18 4-28 14-28 12 0 28 18 48 58Z" />  </g>
  <g fill="#FFC700" opacity="0.8">
    <path d="M204 604h58l14-38 22 38h52l12-24 18 24h32l30-48 32 48h38l18-24 18 24h52l28-44 14 44h64v18H204Z" />
    <rect x="156" y="512" width="42" height="84" rx="10" />
    <rect x="206" y="470" width="30" height="126" rx="10" />
    <rect x="610" y="454" width="70" height="144" rx="32" />
    <rect x="560" y="496" width="42" height="102" rx="20" />
  </g>
  <text x="420" y="814" text-anchor="middle" fill="#FFC700" font-family="Impact, Haettenschweiler, 'Arial Narrow Bold', sans-serif" font-size="88" font-weight="700" letter-spacing="1">BOMBA ABERTA</text>
  <text x="420" y="866" text-anchor="middle" fill="#FFD54A" font-family="Arial, Helvetica, sans-serif" font-size="26" font-weight="700" letter-spacing="4">por VR Abandonada</text>
</svg>


