<svg xmlns="http://www.w3.org/2000/svg" viewBox="0 0 1200 630" fill="none">
  <defs>
    <linearGradient id="og-bg" x1="84" y1="54" x2="1110" y2="580" gradientUnits="userSpaceOnUse">
      <stop stop-color="#16120A" />
      <stop offset="0.45" stop-color="#0D0B06" />
      <stop offset="1" stop-color="#050505" />
    </linearGradient>
    <radialGradient id="og-glow" cx="0" cy="0" r="1" gradientUnits="userSpaceOnUse" gradientTransform="translate(772 200) rotate(180) scale(404 180)">
      <stop stop-color="#FFD54A" stop-opacity="0.26" />
      <stop offset="1" stop-color="#FFC700" stop-opacity="0" />
    </radialGradient>
  </defs>
  <rect width="1200" height="630" rx="84" fill="#050505" />
  <rect x="48" y="48" width="1104" height="534" rx="64" fill="url(#og-bg)" />
  <ellipse cx="772" cy="200" rx="404" ry="180" fill="url(#og-glow)" />
  <g transform="translate(84 124)">
    <g transform="scale(0.74)">
      <path d="M122 20h114c26 0 48 22 48 48v215H92V50c0-17 13-30 30-30Z" fill="#FFC700" />
      <rect x="118" y="46" width="118" height="82" rx="16" fill="#0B0B0B" />
      <rect x="136" y="64" width="82" height="46" rx="10" fill="#FFC700" opacity="0.95" />
      <path d="M287 98 332 136 311 162 270 129l-23 18-18-22 58-48Z" fill="#F9C200" />
      <path d="M246 146c19 0 34 15 34 34v101c0 25 20 45 45 45h7c10 0 18-8 18-18v-15c0-10-8-18-18-18h-5c-18 0-33-15-33-33V198c0-40-22-72-48-88Z" fill="none" stroke="#F9C200" stroke-linecap="round" stroke-linejoin="round" stroke-width="24" />
      <rect x="66" y="284" width="226" height="24" rx="12" fill="#F9C200" />
      <rect x="96" y="330" width="204" height="18" rx="9" fill="#F9C200" />
      <path d="m14 316 116-68-29 55-87 57Z" fill="#F9C200" />
      <path d="m72 300 96-56-26 48-71 47Z" fill="#F9C200" opacity="0.92" />
      <path d="m128 284 72-42-20 39-52 33Z" fill="#F9C200" opacity="0.82" />
    </g>
  </g>
  <text x="360" y="230" fill="#FFC700" font-family="Impact, Haettenschweiler, 'Arial Narrow Bold', sans-serif" font-size="110" font-weight="700">BOMBA ABERTA</text>
  <text x="364" y="286" fill="#FFD54A" font-family="Arial, Helvetica, sans-serif" font-size="28" font-weight="700" letter-spacing="6">por VR Abandonada</text>
  <text x="360" y="372" fill="#F4E4A0" font-family="Arial, Helvetica, sans-serif" font-size="42" font-weight="700">Mapa vivo de combustiveis no Sul Fluminense.</text>
  <text x="360" y="434" fill="#C4B98A" font-family="Arial, Helvetica, sans-serif" font-size="28" font-weight="400">Preco recente, foto e recencia com identidade forte de rua.</text>
  <rect x="360" y="486" width="246" height="54" rx="27" fill="#FFC700" />
  <text x="483" y="521" text-anchor="middle" fill="#050505" font-family="Arial, Helvetica, sans-serif" font-size="26" font-weight="700">Bomba Aberta</text>
</svg>
